<svg width="253.60126953124998px" height="66.11252136230468px" xmlns="http://www.w3.org/2000/svg" viewBox="123.19936523437501 41.94373931884766 253.60126953124998 66.11252136230468" style="background: rgba(0, 0, 0, 0);" preserveAspectRatio="xMidYMid"><defs><filter id="editing-jagged" x="-100%" y="-100%" width="300%" height="300%"><feTurbulence result="turb" baseFrequency="0.1" numOctaves="1" seed="1"></feTurbulence><feDisplacementMap in="SourceGraphic" in2="turb" scale="10"></feDisplacementMap></filter></defs><g filter="url(#editing-jagged)"><g transform="translate(163.81781125068665, 85.72999954223633)"><path d="M1.22-17.98L1.22-17.98L1.22-17.98Q2.06-19.72 4.39-19.72L4.39-19.72L4.39-19.72Q6.73-19.72 7.82-18.37L7.82-18.37L7.82-18.37Q8.90-17.02 8.90-13.92L8.90-13.92L8.90-3.57L15.95-19.11L19.40-19.11L10.38 0L3.60 0L2.73-13.92L2.73-13.92Q2.64-15.46 2.22-16.50L2.22-16.50L2.22-16.50Q1.80-17.55 1.22-17.98ZM20.56-14.12L20.56-14.12L20.56-14.12Q19.58-14.88 19.58-16.49L19.58-16.49L19.58-16.49Q19.58-18.10 20.63-18.94L20.63-18.94L20.63-18.94Q21.69-19.78 23.52-19.78L23.52-19.78L23.52-19.78Q24.68-19.78 27.43-19.37L27.43-19.37L29.41-19.08L29.41-19.08Q30.39-18.97 31.42-18.97L31.42-18.97L31.42-18.97Q32.45-18.97 33.15-19.40L33.15-19.40L33.15-19.40Q34.19-18.47 34.19-17.14L34.19-17.14L34.19-17.14Q34.19-15.81 33.00-14.85L33.00-14.85L33.00-14.85Q31.78-13.83 30.22-13.83L30.22-13.83L30.22-13.83Q29.46-13.83 28.25-14.04L28.25-14.04L28.25-14.04Q26.83-9.57 26.83-6.47L26.83-6.47L26.83-6.47Q26.83-3.36 28.39-1.74L28.39-1.74L28.39-1.74Q27.67-0.43 26.59 0.07L26.59 0.07L26.59 0.07Q25.52 0.58 23.91 0.58L23.91 0.58L23.91 0.58Q22.30 0.58 21.30-0.30L21.30-0.30L21.30-0.30Q20.30-1.19 20.30-3.02L20.30-3.02L20.30-3.02Q20.30-5.13 21.46-8.61L21.46-8.61L21.46-8.61Q22.62-12.06 24.36-14.70L24.36-14.70L24.36-14.70Q23.52-14.79 22.65-14.79L22.65-14.79L22.65-14.79Q20.85-14.79 20.56-14.12ZM44.57-13.40L44.57-13.40L44.57-13.40Q45.01-14.27 45.01-15.08L45.01-15.08L45.01-15.08Q45.01-15.89 44.92-16.34L44.92-16.34L44.92-16.34Q44.83-16.79 44.63-17.14L44.63-17.14L44.63-17.14Q44.20-17.89 43.33-17.89L43.33-17.89L43.33-17.89Q42.25-17.89 41.38-17.11L41.38-17.11L41.38-17.11Q40.46-16.30 40.46-15.02L40.46-15.02L40.46-15.02Q40.46-14.21 41.02-13.59L41.02-13.59L41.02-13.59Q41.59-12.96 42.46-12.38L42.46-12.38L42.46-12.38Q43.33-11.80 44.31-11.22L44.31-11.22L44.31-11.22Q45.30-10.64 46.17-9.95L46.17-9.95L46.17-9.95Q48.17-8.35 48.17-6.21L48.17-6.21L48.17-6.21Q48.17-4.76 47.40-3.52L47.40-3.52L47.40-3.52Q46.63-2.29 45.36-1.39L45.36-1.39L45.36-1.39Q42.57 0.58 38.89 0.58L38.89 0.58L38.89 0.58Q35.90 0.58 34.37-0.39L34.37-0.39L34.37-0.39Q32.83-1.36 32.83-2.84L32.83-2.84L32.83-2.84Q32.83-5.48 34.89-6.15L34.89-6.15L34.89-6.15Q35.47-6.35 36.35-6.35L36.35-6.35L36.35-6.35Q37.24-6.35 38.25-5.97L38.25-5.97L38.25-5.97Q37.79-4.79 37.79-3.71L37.79-3.71L37.79-3.71Q37.79-1.39 39.44-1.39L39.44-1.39L39.44-1.39Q40.51-1.39 41.40-2.18L41.40-2.18L41.40-2.18Q42.28-2.96 42.28-3.84L42.28-3.84L42.28-3.84Q42.28-4.73 41.72-5.37L41.72-5.37L41.72-5.37Q41.15-6.00 40.31-6.51L40.31-6.51L40.31-6.51Q39.47-7.02 38.50-7.51L38.50-7.51L38.50-7.51Q37.53-8.00 36.69-8.70L36.69-8.70L36.69-8.70Q34.71-10.29 34.71-12.85L34.71-12.85L34.71-12.85Q34.71-14.50 35.53-15.79L35.53-15.79L35.53-15.79Q36.34-17.08 37.64-17.95L37.64-17.95L37.64-17.95Q40.25-19.72 43.46-19.72L43.46-19.72L43.46-19.72Q46.66-19.72 48.21-18.76L48.21-18.76L48.21-18.76Q49.76-17.81 49.76-16.18L49.76-16.18L49.76-16.18Q49.76-14.76 48.66-13.86L48.66-13.86L48.66-13.86Q47.71-13.11 46.55-13.11L46.55-13.11L46.55-13.11Q45.39-13.11 44.57-13.40ZM53.36 0L50.17 0L53.65-19.14L59.89-19.14L64.41-5.97L66.82-19.14L70.03-19.11L66.50 0L59.86 0L55.68-12.67L53.36 0ZM82.07-13.40L82.07-13.40L82.07-13.40Q82.50-14.27 82.50-15.08L82.50-15.08L82.50-15.08Q82.50-15.89 82.42-16.34L82.42-16.34L82.42-16.34Q82.33-16.79 82.13-17.14L82.13-17.14L82.13-17.14Q81.69-17.89 80.82-17.89L80.82-17.89L80.82-17.89Q79.75-17.89 78.88-17.11L78.88-17.11L78.88-17.11Q77.95-16.30 77.95-15.02L77.95-15.02L77.95-15.02Q77.95-14.21 78.52-13.59L78.52-13.59L78.52-13.59Q79.08-12.96 79.95-12.38L79.95-12.38L79.95-12.38Q80.82-11.80 81.81-11.22L81.81-11.22L81.81-11.22Q82.80-10.64 83.66-9.95L83.66-9.95L83.66-9.95Q85.67-8.35 85.67-6.21L85.67-6.21L85.67-6.21Q85.67-4.76 84.90-3.52L84.90-3.52L84.90-3.52Q84.13-2.29 82.85-1.39L82.85-1.39L82.85-1.39Q80.07 0.58 76.39 0.58L76.39 0.58L76.39 0.58Q73.40 0.58 71.86-0.39L71.86-0.39L71.86-0.39Q70.33-1.36 70.33-2.84L70.33-2.84L70.33-2.84Q70.33-5.48 72.38-6.15L72.38-6.15L72.38-6.15Q72.96-6.35 73.85-6.35L73.85-6.35L73.85-6.35Q74.73-6.35 75.75-5.97L75.75-5.97L75.75-5.97Q75.28-4.79 75.28-3.71L75.28-3.71L75.28-3.71Q75.28-1.39 76.94-1.39L76.94-1.39L76.94-1.39Q78.01-1.39 78.89-2.18L78.89-2.18L78.89-2.18Q79.78-2.96 79.78-3.84L79.78-3.84L79.78-3.84Q79.78-4.73 79.21-5.37L79.21-5.37L79.21-5.37Q78.65-6.00 77.81-6.51L77.81-6.51L77.81-6.51Q76.97-7.02 75.99-7.51L75.99-7.51L75.99-7.51Q75.02-8.00 74.18-8.70L74.18-8.70L74.18-8.70Q72.21-10.29 72.21-12.85L72.21-12.85L72.21-12.85Q72.21-14.50 73.02-15.79L73.02-15.79L73.02-15.79Q73.83-17.08 75.14-17.95L75.14-17.95L75.14-17.95Q77.75-19.72 80.95-19.72L80.95-19.72L80.95-19.72Q84.16-19.72 85.71-18.76L85.71-18.76L85.71-18.76Q87.26-17.81 87.26-16.18L87.26-16.18L87.26-16.18Q87.26-14.76 86.16-13.86L86.16-13.86L86.16-13.86Q85.20-13.11 84.04-13.11L84.04-13.11L84.04-13.11Q82.88-13.11 82.07-13.40ZM87.58-0.15L87.58-0.15L91.23-19.14L91.23-19.14Q94.66-19.43 96.86-19.43L96.86-19.43L96.86-19.43Q99.06-19.43 100.48-19.24L100.48-19.24L100.48-19.24Q101.91-19.05 102.86-18.56L102.86-18.56L102.86-18.56Q104.78-17.63 104.78-15.08L104.78-15.08L104.78-15.08Q104.78-13.60 103.50-12.35L103.50-12.35L103.50-12.35Q102.31-11.22 101.01-10.96L101.01-10.96L101.01-10.96Q102.40-10.73 103.38-9.69L103.38-9.69L103.38-9.69Q104.43-8.58 104.43-6.87L104.43-6.87L104.43-6.87Q104.43-3.57 101.96-1.64L101.96-1.64L101.96-1.64Q99.50 0.29 94.66 0.29L94.66 0.29L94.66 0.29Q91.32 0.29 87.58-0.15ZM95.47-9.34L94.02-1.83L94.02-1.83Q94.28-1.80 94.34-1.80L94.34-1.80L94.60-1.80L94.60-1.80Q96.98-1.80 97.99-3.36L97.99-3.36L97.99-3.36Q98.74-4.58 98.74-6.82L98.74-6.82L98.74-6.82Q98.74-8.00 97.98-8.64L97.98-8.64L97.98-8.64Q97.21-9.28 95.47-9.34L95.47-9.34ZM99.88-15.05L99.88-15.05L99.88-15.05Q99.88-17.46 97.56-17.46L97.56-17.46L97.30-17.46L97.30-17.46Q97.18-17.46 97.00-17.43L97.00-17.43L95.84-11.31L96.13-11.31L96.13-11.31Q99.88-11.40 99.88-15.05ZM112.66 0.58L112.66 0.58L112.66 0.58Q106.28 0.58 106.28-5.42L106.28-5.42L106.28-5.42Q106.28-9.69 108.63-12.44L108.63-12.44L108.63-12.44Q111.13-15.37 115.45-15.37L115.45-15.37L115.45-15.37Q118.58-15.37 120.18-13.92L120.18-13.92L120.18-13.92Q121.77-12.47 121.77-9.43L121.77-9.43L121.77-9.43Q121.77-4.79 119.28-2.09L119.28-2.09L119.28-2.09Q116.84 0.58 112.66 0.58ZM113.42-12.04L113.42-12.04L113.42-12.04Q113.07-11.25 112.80-10.08L112.80-10.08L112.80-10.08Q112.52-8.90 112.17-7.05L112.17-7.05L112.17-7.05Q111.82-5.19 111.82-2.90L111.82-2.90L111.82-2.90Q111.82-2.15 112.07-1.65L112.07-1.65L112.07-1.65Q112.32-1.16 112.98-1.16L112.98-1.16L112.98-1.16Q113.65-1.16 114.07-1.48L114.07-1.48L114.07-1.48Q114.49-1.80 114.81-2.55L114.81-2.55L114.81-2.55Q115.39-3.89 115.85-6.37L115.85-6.37L115.85-6.37Q116.32-8.85 116.36-9.92L116.36-9.92L116.36-9.92Q116.41-10.99 116.41-11.79L116.41-11.79L116.41-11.79Q116.41-12.59 116.17-13.11L116.17-13.11L116.17-13.11Q115.94-13.63 115.29-13.63L115.29-13.63L115.29-13.63Q114.64-13.63 114.20-13.22L114.20-13.22L114.20-13.22Q113.77-12.82 113.42-12.04ZM129.80 0.58L129.80 0.58L129.80 0.58Q123.42 0.58 123.42-5.42L123.42-5.42L123.42-5.42Q123.42-9.69 125.77-12.44L125.77-12.44L125.77-12.44Q128.27-15.37 132.59-15.37L132.59-15.37L132.59-15.37Q135.72-15.37 137.31-13.92L137.31-13.92L137.31-13.92Q138.91-12.47 138.91-9.43L138.91-9.43L138.91-9.43Q138.91-4.79 136.42-2.09L136.42-2.09L136.42-2.09Q133.98 0.58 129.80 0.58ZM130.56-12.04L130.56-12.04L130.56-12.04Q130.21-11.25 129.93-10.08L129.93-10.08L129.93-10.08Q129.66-8.90 129.31-7.05L129.31-7.05L129.31-7.05Q128.96-5.19 128.96-2.90L128.96-2.90L128.96-2.90Q128.96-2.15 129.21-1.65L129.21-1.65L129.21-1.65Q129.46-1.16 130.12-1.16L130.12-1.16L130.12-1.16Q130.79-1.16 131.21-1.48L131.21-1.48L131.21-1.48Q131.63-1.80 131.95-2.55L131.95-2.55L131.95-2.55Q132.53-3.89 132.99-6.37L132.99-6.37L132.99-6.37Q133.46-8.85 133.50-9.92L133.50-9.92L133.50-9.92Q133.54-10.99 133.54-11.79L133.54-11.79L133.54-11.79Q133.54-12.59 133.31-13.11L133.31-13.11L133.31-13.11Q133.08-13.63 132.43-13.63L132.43-13.63L132.43-13.63Q131.78-13.63 131.34-13.22L131.34-13.22L131.34-13.22Q130.91-12.82 130.56-12.04ZM148.10-13.75L148.10-13.75L148.10-13.75Q149.67-15.37 152.97-15.37L152.97-15.37L152.97-15.37Q154.80-15.37 155.80-14.40L155.80-14.40L155.80-14.40Q156.80-13.43 156.80-11.64L156.80-11.64L156.80-11.64Q156.80-9.86 155.80-8.60L155.80-8.60L155.80-8.60Q154.80-7.34 152.95-6.82L152.95-6.82L152.95-6.82Q153.09-6.24 153.29-5.63L153.29-5.63L153.70-4.47L153.70-4.47Q154.25-2.99 154.69-2.47L154.69-2.47L154.69-2.47Q155.12-1.94 155.70-1.77L155.70-1.77L155.70-1.77Q155.38-0.58 154.22 0.06L154.22 0.06L154.22 0.06Q153.29 0.58 152.02 0.58L152.02 0.58L152.02 0.58Q148.28 0.58 147.78-5.19L147.78-5.19L147.78-5.19Q147.70-6.00 147.70-6.82L147.70-6.82L147.70-6.82Q149.15-7.22 150.16-8.58L150.16-8.58L150.16-8.58Q151.18-9.95 151.18-11.54L151.18-11.54L151.18-11.54Q151.18-13.14 150.05-13.14L150.05-13.14L150.05-13.14Q149.23-13.14 148.60-12.24L148.60-12.24L148.60-12.24Q147.96-11.34 147.67-9.80L147.67-9.80L145.75 0L139.90 0.58L143.96-20.30L149.78-20.88L149.12-17.43L149.12-17.43Q148.68-14.99 148.10-13.75ZM166.81-10.18L166.81-10.18L166.81-10.18Q167.21-11.25 167.21-12.18L167.21-12.18L167.21-12.18Q167.21-13.89 165.82-13.89L165.82-13.89L165.82-13.89Q165.10-13.89 164.50-13.24L164.50-13.24L164.50-13.24Q163.91-12.59 163.91-11.77L163.91-11.77L163.91-11.77Q163.91-11.19 164.37-10.73L164.37-10.73L164.37-10.73Q165.04-10.09 166.75-9.05L166.75-9.05L166.75-9.05Q168.46-8.00 169.11-7.15L169.11-7.15L169.11-7.15Q169.77-6.29 169.77-5.12L169.77-5.12L169.77-5.12Q169.77-3.94 169.20-2.87L169.20-2.87L169.20-2.87Q168.63-1.80 167.62-1.04L167.62-1.04L167.62-1.04Q165.44 0.58 161.96 0.58L161.96 0.58L161.96 0.58Q160.08 0.58 158.63-0.41L158.63-0.41L158.63-0.41Q157.18-1.36 157.18-2.49L157.18-2.49L157.18-2.49Q157.18-3.63 158.01-4.29L158.01-4.29L158.01-4.29Q158.83-4.96 160.05-4.96L160.05-4.96L160.05-4.96Q161.27-4.96 162.02-4.50L162.02-4.50L162.02-4.50Q161.65-3.54 161.65-2.90L161.65-2.90L161.65-2.90Q161.65-0.99 163.27-0.99L163.27-0.99L163.27-0.99Q163.97-0.99 164.43-1.42L164.43-1.42L164.43-1.42Q164.89-1.86 164.89-2.61L164.89-2.61L164.89-2.61Q164.89-4.09 162.40-5.66L162.40-5.66L162.40-5.66Q160.37-6.99 159.91-7.51L159.91-7.51L159.91-7.51Q159.12-8.44 159.12-9.60L159.12-9.60L159.12-9.60Q159.12-10.76 159.67-11.86L159.67-11.86L159.67-11.86Q160.22-12.96 161.24-13.75L161.24-13.75L161.24-13.75Q163.36-15.37 167.04-15.37L167.04-15.37L167.04-15.37Q168.92-15.37 170.04-14.62L170.04-14.62L170.04-14.62Q171.16-13.86 171.16-12.59L171.16-12.59L171.16-12.59Q171.16-11.31 170.39-10.59L170.39-10.59L170.39-10.59Q169.62-9.86 168.23-9.86L168.23-9.86L168.23-9.86Q167.27-9.86 166.81-10.18Z" fill="#fff"></path></g></g><style>text {
  font-size: 64px;
  font-family: Arial Black;
  dominant-baseline: central;
  text-anchor: middle;
}</style></svg>